<svg width="158" height="70" viewBox="0 0 158 70" fill="none" xmlns="http://www.w3.org/2000/svg">
<circle cx="3.88235" cy="3.88235" r="3.88235" fill="#12304F"/>
<circle cx="3.88235" cy="19.4118" r="3.88235" fill="#12304F"/>
<circle cx="3.88235" cy="34.9412" r="3.88235" fill="#12304F"/>
<circle cx="3.88235" cy="50.4706" r="3.88235" fill="#12304F"/>
<circle cx="3.88235" cy="66" r="3.88235" fill="#12304F"/>
<circle cx="22.647" cy="3.88235" r="3.88235" fill="#12304F"/>
<circle cx="22.647" cy="19.4118" r="3.88235" fill="#12304F"/>
<circle cx="22.647" cy="34.9412" r="3.88235" fill="#12304F"/>
<circle cx="22.647" cy="50.4706" r="3.88235" fill="#12304F"/>
<circle cx="22.647" cy="66" r="3.88235" fill="#12304F"/>
<circle cx="41.4118" cy="3.88235" r="3.88235" fill="#12304F"/>
<circle cx="41.4118" cy="19.4118" r="3.88235" fill="#12304F"/>
<circle cx="41.4118" cy="34.9412" r="3.88235" fill="#12304F"/>
<circle cx="41.4118" cy="50.4706" r="3.88235" fill="#12304F"/>
<circle cx="41.4118" cy="66" r="3.88235" fill="#12304F"/>
<circle cx="60.1765" cy="3.88235" r="3.88235" fill="#12304F"/>
<circle cx="60.1765" cy="19.4118" r="3.88235" fill="#12304F"/>
<circle cx="60.1765" cy="34.9412" r="3.88235" fill="#12304F"/>
<circle cx="60.1765" cy="50.4706" r="3.88235" fill="#12304F"/>
<circle cx="60.1765" cy="66" r="3.88235" fill="#12304F"/>
<circle cx="78.9412" cy="3.88235" r="3.88235" fill="#12304F"/>
<circle cx="78.9412" cy="19.4118" r="3.88235" fill="#12304F"/>
<circle cx="78.9412" cy="34.9412" r="3.88235" fill="#12304F"/>
<circle cx="78.9412" cy="50.4706" r="3.88235" fill="#12304F"/>
<circle cx="78.9412" cy="66" r="3.88235" fill="#12304F"/>
<circle cx="97.7058" cy="3.88235" r="3.88235" fill="#12304F"/>
<circle cx="97.7058" cy="19.4118" r="3.88235" fill="#12304F"/>
<circle cx="97.7058" cy="34.9412" r="3.88235" fill="#12304F"/>
<circle cx="97.7058" cy="50.4706" r="3.88235" fill="#12304F"/>
<circle cx="97.7058" cy="66" r="3.88235" fill="#12304F"/>
<circle cx="116.471" cy="3.88235" r="3.88235" fill="#12304F"/>
<circle cx="116.471" cy="19.4118" r="3.88235" fill="#12304F"/>
<circle cx="116.471" cy="34.9412" r="3.88235" fill="#12304F"/>
<circle cx="116.471" cy="50.4706" r="3.88235" fill="#12304F"/>
<circle cx="116.471" cy="66" r="3.88235" fill="#12304F"/>
<circle cx="135.235" cy="3.88235" r="3.88235" fill="#12304F"/>
<circle cx="135.235" cy="19.4118" r="3.88235" fill="#12304F"/>
<circle cx="135.235" cy="34.9412" r="3.88235" fill="#12304F"/>
<circle cx="135.235" cy="50.4706" r="3.88235" fill="#12304F"/>
<circle cx="135.235" cy="66" r="3.88235" fill="#12304F"/>
<circle cx="154" cy="3.88235" r="3.88235" fill="#12304F"/>
<circle cx="154" cy="19.4118" r="3.88235" fill="#12304F"/>
<circle cx="154" cy="34.9412" r="3.88235" fill="#12304F"/>
<circle cx="154" cy="50.4706" r="3.88235" fill="#12304F"/>
<circle cx="154" cy="66" r="3.88235" fill="#12304F"/>
</svg>
