<svg width="223" height="40" viewBox="0 0 223 40" fill="none" xmlns="http://www.w3.org/2000/svg">
<g clip-path="url(#clip0_2:58)">
<path d="M15.6754 34.5322C15.6757 34.687 15.6299 34.8385 15.5439 34.9674C15.4578 35.0963 15.3353 35.1968 15.1919 35.2563C15.0485 35.3158 14.8906 35.3315 14.7382 35.3015C14.5858 35.2715 14.4458 35.1971 14.3359 35.0877C14.2259 34.9784 14.151 34.8389 14.1206 34.6871C14.0901 34.5352 14.1056 34.3778 14.1649 34.2347C14.2243 34.0916 14.3249 33.9693 14.4541 33.8833C14.5832 33.7972 14.735 33.7513 14.8904 33.7513C15.0983 33.7513 15.2977 33.8335 15.4449 33.9799C15.592 34.1263 15.6749 34.3249 15.6754 34.5322Z" fill="white"/>
<path d="M11.0281 20.1956C8.41971 22.1454 6.63439 25.259 6.19883 28.5955C5.58796 28.6144 5.00842 28.8694 4.5828 29.3066C4.15719 29.7438 3.91889 30.3289 3.91832 30.9381V33.9775C2.78429 34.3111 1.78936 35.0023 1.08285 35.9474C0.376334 36.8925 -0.003655 38.0405 -9.73145e-05 39.2191C-9.73145e-05 39.4262 0.0824343 39.6248 0.229342 39.7713C0.376249 39.9177 0.575498 40 0.783256 40H28.9989C29.2066 40 29.4059 39.9177 29.5528 39.7713C29.6997 39.6248 29.7822 39.4262 29.7822 39.2191C29.7858 38.0405 29.4058 36.8925 28.6993 35.9474C27.9928 35.0023 26.9978 34.3111 25.8638 33.9775V30.9381C25.8627 30.344 25.6356 29.7724 25.2284 29.3386C24.8211 28.9047 24.264 28.641 23.6694 28.6004C23.4322 27.4276 23.5088 26.2131 23.8913 25.079H28.0615C28.2288 25.0788 28.3916 25.0254 28.5262 24.9265C28.6609 24.8276 28.7603 24.6885 28.8101 24.5293C29.8303 21.2588 30.7974 17.29 29.3665 11.5696C27.6938 4.89826 21.2415 0 15.8111 0H11.8363C11.6286 0 11.4293 0.0822713 11.2824 0.228715C11.1355 0.375159 11.053 0.57378 11.053 0.780882V5.19378C9.81325 5.37737 8.6745 5.98013 7.82755 6.90106C6.98059 7.82198 6.4769 9.00511 6.40088 10.2522L3.04554 13.5969C2.82701 13.8145 2.65365 14.0729 2.53537 14.3573C2.41709 14.6417 2.3562 14.9466 2.3562 15.2544C2.3562 15.5623 2.41709 15.8672 2.53537 16.1516C2.65365 16.436 2.82701 16.6944 3.04554 16.912L4.96832 18.8204C5.54643 19.3979 6.32891 19.7259 7.14727 19.734C7.96563 19.742 8.75443 19.4293 9.34383 18.8633C9.84067 18.4688 11.3594 16.2533 13.8038 17.1266C13.0863 18.3188 12.1436 19.3611 11.0281 20.1956ZM24.2954 30.9381V33.7447H18.0253C17.8175 33.7447 17.6183 33.827 17.4714 33.9734C17.3245 34.1198 17.242 34.3185 17.242 34.5256C17.242 34.7327 17.3245 34.9313 17.4714 35.0777C17.6183 35.2242 17.8175 35.3065 18.0253 35.3065H24.2954C25.1998 35.3036 26.0771 35.6135 26.7777 36.1835C27.4784 36.7534 27.959 37.5479 28.1377 38.4316H1.64445C1.82279 37.5478 2.30335 36.753 3.00409 36.1831C3.70482 35.6131 4.58229 35.3033 5.48669 35.3065H11.7585C11.9662 35.3065 12.1655 35.2242 12.3124 35.0777C12.4593 34.9313 12.5418 34.7327 12.5418 34.5256C12.5418 34.3185 12.4593 34.1198 12.3124 33.9734C12.1655 33.827 11.9662 33.7447 11.7585 33.7447H5.48669V30.9381C5.48669 30.731 5.56922 30.5324 5.71613 30.386C5.86303 30.2395 6.06228 30.1572 6.27004 30.1572H23.5171C23.724 30.1586 23.9219 30.2414 24.0678 30.3877C24.2136 30.534 24.2954 30.7319 24.2954 30.9381ZM27.8462 11.9526C29.1065 16.9797 28.406 20.4482 27.4819 23.5189H24.3865C25.3603 20.4515 26.1851 17.4502 24.991 12.6906C24.163 9.397 21.2614 6.28668 17.3198 5.35722V3.11528C17.3191 2.60434 17.1922 2.10143 16.9505 1.65091C21.4601 2.27826 26.4766 6.48809 27.8462 11.9493V11.9526ZM15.2745 17.7143C16.8544 18.1353 18.2009 17.6433 19.2293 17.1365C19.412 17.0427 19.5504 16.8811 19.6146 16.6865C19.6789 16.492 19.6639 16.28 19.5729 16.0964C19.4819 15.9127 19.3221 15.7721 19.128 15.7048C18.934 15.6375 18.7211 15.6489 18.5354 15.7365C17.2966 16.3457 16.235 16.562 14.973 15.933C13.5339 15.2165 12.0466 15.1802 10.6671 15.8257C9.50779 16.3688 8.81552 17.1794 8.27065 17.7193C8.12619 17.8637 7.95454 17.9783 7.76555 18.0565C7.57656 18.1347 7.37395 18.175 7.16932 18.175C6.9647 18.175 6.76208 18.1347 6.5731 18.0565C6.38411 17.9783 6.21246 17.8637 6.06799 17.7193L4.1535 15.8075C4.00645 15.6608 3.92385 15.4619 3.92385 15.2544C3.92385 15.047 4.00645 14.8481 4.1535 14.7014L7.7291 11.1387C7.87543 10.9916 7.95757 10.7928 7.95764 10.5857C7.95588 9.55814 8.3631 8.57189 9.08995 7.84331C9.81679 7.11473 10.8039 6.70334 11.8347 6.69941C12.0424 6.69941 12.2417 6.61714 12.3886 6.47069C12.5355 6.32425 12.618 6.12563 12.618 5.91853V1.56176H14.1996C14.6121 1.56308 15.0072 1.72733 15.2984 2.01852C15.5896 2.30972 15.7531 2.70412 15.7531 3.11528V5.99282C15.7516 6.1781 15.8162 6.35788 15.9355 6.50002C16.0547 6.64217 16.2207 6.73742 16.4039 6.76875C20.0475 7.39114 22.7453 10.1746 23.4707 13.0719C24.6416 17.7407 23.7423 20.3657 22.5681 24.067C22.1077 25.5198 21.7748 26.7943 22.0713 28.6004H7.78375C8.20772 25.7543 9.74627 23.1128 11.9688 21.447C13.3131 20.439 14.4377 19.169 15.2745 17.7143Z" fill="white"/>
<path d="M12.5403 10.6253H10.972C10.7642 10.6253 10.5649 10.7076 10.418 10.854C10.2711 11.0005 10.1886 11.1991 10.1886 11.4062C10.1886 11.6133 10.2711 11.8119 10.418 11.9584C10.5649 12.1048 10.7642 12.1871 10.972 12.1871H12.5403C12.7481 12.1871 12.9473 12.1048 13.0942 11.9584C13.2411 11.8119 13.3237 11.6133 13.3237 11.4062C13.3237 11.1991 13.2411 11.0005 13.0942 10.854C12.9473 10.7076 12.7481 10.6253 12.5403 10.6253Z" fill="white"/>
<path d="M56.057 21.5378C53.215 21.5378 51.3618 24.1182 51.0571 29.132C51.0323 30.0433 51.0074 30.0929 50.3731 30.0929C49.4838 30.0929 49.4838 30.0169 49.4838 29.208C49.4838 25.4109 50.9743 21.7789 54.1209 20.7883C50.9743 19.8787 49.4838 16.3308 49.4838 12.7698C49.4838 11.8849 49.4838 11.8849 50.3218 11.8849C51.0074 11.8849 51.0571 11.9097 51.0571 12.8969C51.0571 17.323 53.5198 20.0553 56.057 20.0553C58.6207 20.0553 61.0254 17.3495 61.0254 12.8705C61.0254 11.9609 61.0519 11.88 61.7872 11.88C62.6252 11.88 62.6252 11.9312 62.6252 12.7649C62.6252 16.3325 61.1016 19.8737 57.9549 20.7834C61.1016 21.7739 62.6252 25.4142 62.6252 29.203C62.6252 30.0384 62.6252 30.0879 61.8385 30.0879C61.0254 30.0879 61.0005 30.012 61.0005 29.1271C60.7521 23.7732 58.6455 21.5378 56.057 21.5378Z" fill="white"/>
<path d="M69.9636 22.398C71.739 22.398 73.2361 23.0303 74.0493 24.2453V21.1581C74.0493 18.1485 71.6628 17.7936 70.4207 17.7936C69.0494 17.7936 67.5009 18.1997 67.0703 18.3252C66.7391 18.4259 66.5884 18.4011 66.4608 18.0726L66.335 17.7424C66.1826 17.3627 66.4112 17.2108 66.6894 17.1349C67.9604 16.7258 69.2871 16.5148 70.6227 16.5092C72.2789 16.5092 75.5199 16.8889 75.5199 21.0376V29.1568C75.5199 30.0434 75.4702 30.0929 74.7084 30.0929C74.099 30.0929 74.046 30.0169 74.046 29.1568V28.6005C73.2328 29.8155 71.6595 30.3471 69.9338 30.3471C67.1465 30.3422 65.4175 28.8745 65.4175 26.4146C65.4175 23.9168 67.1978 22.398 69.9636 22.398ZM66.9693 26.3948C66.9693 28.1151 68.1369 29.3302 70.3693 29.3302C72.5223 29.3302 73.9731 28.191 74.0493 26.5236V26.271C73.9731 24.6515 72.6018 23.4116 70.3942 23.4116C68.1369 23.41 66.9693 24.6498 66.9693 26.3948Z" fill="white"/>
<path d="M84.0971 16.5091C86.4074 16.5091 87.8797 17.749 88.5902 19.9249C88.5902 17.8249 88.5388 12.7153 88.5388 11.8354C88.5388 11.279 88.5902 11.2543 89.4265 11.2543C90.089 11.2543 90.1121 11.279 90.1121 11.9873C90.1121 14.6188 90.0608 17.6532 90.0608 20.3607V29.1634C90.0608 30.0499 90.0111 30.0995 89.2741 30.0995C88.6398 30.0995 88.5902 30.0235 88.5902 29.1634V26.7993C87.8797 28.9455 86.3809 30.3421 84.0971 30.3421C81.2816 30.3421 79.0475 28.5707 79.0475 23.4347C79.0475 18.2987 81.3065 16.5091 84.0971 16.5091ZM88.5686 23.4661C88.5686 19.5947 86.8181 17.7985 84.3819 17.7985C82.1743 17.7985 80.6258 19.5187 80.6258 23.4661C80.6258 27.4629 82.1743 29.132 84.3819 29.132C86.8131 29.1271 88.5637 26.9099 88.5637 23.4611L88.5686 23.4661Z" fill="white"/>
<path d="M95.8721 20.0206C96.634 17.6169 98.4093 16.5042 100.344 16.5042C100.755 16.4925 101.165 16.5438 101.561 16.6561C101.816 16.732 101.917 16.9087 101.841 17.1877L101.713 17.6169C101.637 17.9207 101.46 17.9471 101.182 17.8959C100.82 17.8403 100.456 17.8061 100.09 17.7935C98.517 17.7935 95.8771 18.7296 95.8523 25.434V29.1783C95.8523 29.9624 95.8009 30.0879 95.0391 30.0879C94.4313 30.0879 94.3767 29.9624 94.3767 29.1783V25.8632C94.3767 24.0472 94.3253 18.269 94.3253 17.3395C94.3253 16.7832 94.3767 16.7568 95.1882 16.7568C95.8506 16.7568 95.8986 16.7832 95.8986 17.4898C95.8904 18.3004 95.8904 19.1605 95.8721 20.0206Z" fill="white"/>
<path d="M105.262 23.7385C105.413 28.3611 107.723 29.1865 109.754 29.1865C111.428 29.1865 112.672 28.5262 113.331 28.196C113.662 28.0441 113.788 28.0953 113.916 28.3479L114.066 28.7028C114.169 28.929 114.143 29.0049 113.788 29.208C112.54 29.9617 111.107 30.356 109.648 30.3471C106.476 30.3471 103.686 28.8613 103.686 23.2383C103.686 17.7226 106.402 16.5092 109.194 16.5092C111.986 16.5092 114.37 17.6466 114.37 22.8833C114.37 23.4149 114.091 23.7435 113.431 23.7435L105.262 23.7385ZM105.262 22.677H112.925C112.925 18.5018 111.225 17.6681 109.196 17.6681C107.167 17.6681 105.413 18.553 105.262 22.677Z" fill="white"/>
<path d="M118.331 28.9999C119.118 29.0511 120.183 29.0759 121.325 29.0759C122.899 29.0759 124.445 29.0264 125.283 28.9504C125.64 28.8992 125.842 28.9504 125.893 29.7346C125.918 29.9872 125.868 30.1391 125.487 30.1903C124.777 30.3157 123.203 30.3421 121.097 30.3421C119.041 30.3421 117.773 30.3157 116.986 30.1903C116.63 30.1391 116.554 30.012 116.554 29.7346C116.579 29.3549 117.137 28.3676 117.548 27.7865L124.07 17.8447C123.283 17.82 122.191 17.7688 121.049 17.7688C119.558 17.7688 118.155 17.8447 117.369 17.8959C116.913 17.9454 116.837 17.8695 116.761 17.1117C116.734 16.8327 116.837 16.6808 117.167 16.6313C117.852 16.5554 119.78 16.5042 121.277 16.5042C122.774 16.5042 124.755 16.5554 125.418 16.6313C125.749 16.6808 125.875 16.8575 125.823 17.1365C125.823 17.2884 125.646 17.8959 124.479 19.6921L118.331 28.9999Z" fill="white"/>
<path d="M128.71 14.6321C128.71 13.7208 129.041 13.6415 129.704 13.6415C130.49 13.6415 130.593 13.7175 130.593 14.2755V14.5016C130.593 15.4129 130.262 15.5136 129.599 15.5136C128.788 15.5136 128.712 15.4129 128.712 14.8533L128.71 14.6321ZM128.836 17.3396C128.836 16.7832 128.887 16.7568 129.699 16.7568C130.361 16.7568 130.384 16.7832 130.384 17.4898C130.384 20.1213 130.359 23.1574 130.359 25.8632V29.1518C130.359 30.0384 130.308 30.0879 129.546 30.0879C128.939 30.0879 128.884 30.012 128.884 29.1518V25.8632C128.887 24.0423 128.836 18.2756 128.836 17.3346V17.3396Z" fill="white"/>
<path d="M144.291 30.0879C143.657 30.0879 143.605 30.012 143.605 29.1518V21.1317C143.605 19.0829 142.996 17.919 141.068 17.919C138.758 17.919 136.597 19.664 136.297 23.6873V29.1502C136.297 30.0367 136.245 30.0863 135.51 30.0863C134.876 30.0863 134.824 30.0103 134.824 29.1502V25.8632C134.824 24.0472 134.775 18.269 134.775 17.3395C134.775 16.7832 134.824 16.7568 135.638 16.7568C136.3 16.7568 136.348 16.7832 136.348 17.4898C136.348 18.4258 136.348 19.4131 136.322 20.4499C137.16 17.7688 139.468 16.5042 141.676 16.5042C143.961 16.5042 145.127 17.8249 145.127 20.9055C145.127 22.7215 145.102 24.625 145.102 26.446V29.1518C145.102 30.0466 145.026 30.0879 144.291 30.0879Z" fill="white"/>
<path d="M155.609 17.8695C153.223 17.8695 150.939 19.8176 150.838 24.2701V29.1782C150.838 29.9624 150.786 30.0879 150.051 30.0879C149.417 30.0879 149.365 29.9624 149.365 29.1782V20.3492C149.365 18.5331 149.316 12.7549 149.316 11.8238C149.316 11.2675 149.365 11.2427 150.179 11.2427C150.841 11.2427 150.889 11.2675 150.889 11.9757C150.889 14.6073 150.838 17.6417 150.838 20.3492V21.1086C151.472 17.9718 153.908 16.5042 156.243 16.5042C158.502 16.5042 159.668 17.8249 159.668 20.9055C159.668 22.7215 159.643 24.625 159.643 26.446V29.1518C159.643 30.0384 159.592 30.0879 158.857 30.0879C158.222 30.0879 158.171 30.012 158.171 29.1518V21.1317C158.171 19.0086 157.512 17.8695 155.609 17.8695Z" fill="white"/>
<path d="M163.171 23.334C163.171 17.744 165.912 16.5042 168.881 16.5042C171.851 16.5042 174.59 17.744 174.59 23.334C174.59 28.7226 171.849 30.3421 168.881 30.3421C165.913 30.3421 163.171 28.7259 163.171 23.334ZM172.992 23.3588C172.992 18.7362 171.089 17.7457 168.881 17.7457C166.674 17.7457 164.769 18.7362 164.769 23.3588C164.769 27.8625 166.672 29.1782 168.881 29.1782C171.091 29.1782 172.992 27.8625 172.992 23.3588Z" fill="white"/>
<path d="M186.441 26.8257C187.405 26.8 188.36 26.6467 189.283 26.3701C190.045 26.167 190.5 26.2182 190.679 27.1031L190.933 28.3429C191.136 29.279 190.78 29.482 190.298 29.6636C188.92 30.1399 187.468 30.3712 186.009 30.3471C179.996 30.3471 177.001 27.3358 177.001 20.9864C177.001 14.6882 180.02 11.6274 186.06 11.6274C187.502 11.6068 188.936 11.8376 190.298 12.3092C190.78 12.4875 191.161 12.6889 190.933 13.6299L190.679 14.8582C190.5 15.7695 190.045 15.7943 189.283 15.5912C188.361 15.313 187.405 15.1602 186.441 15.1372C183.319 15.1372 181.804 17.1348 181.804 20.9798C181.798 24.8512 183.319 26.8257 186.441 26.8257Z" fill="white"/>
<path d="M205.956 26.9512V27.6346C205.956 29.9872 205.778 30.0879 203.471 30.0879C201.848 30.0879 201.62 29.9624 201.62 27.9632C200.681 29.5827 198.778 30.3421 197.128 30.3421C195.022 30.3421 193.119 29.6339 193.119 25.5859C193.119 24.9783 193.119 24.3708 193.144 23.7385C193.092 21.6897 192.94 19.6112 192.94 18.6289C192.94 16.8327 192.967 16.7568 195.529 16.7568C197.534 16.7568 197.586 16.808 197.586 19.0334V25.3828C197.586 26.4708 198.016 27.1031 199.006 27.1031C200.249 27.1031 201.416 25.8385 201.569 23.2333C201.519 21.6897 201.492 20.3492 201.492 19.0334C201.492 16.8327 201.595 16.7568 204.081 16.7568C206.035 16.7568 206.111 16.808 206.111 19.0334C206.108 21.2093 205.956 23.6378 205.956 26.9512Z" fill="white"/>
<path d="M208.392 18.1733C208.392 16.8327 208.417 16.7568 210.929 16.7568C212.916 16.7568 212.984 16.8079 212.984 19.0086C213.67 17.3395 214.938 16.5042 216.893 16.5042C220.064 16.5042 222.222 18.6801 222.222 23.438C222.222 28.0688 220.217 30.3454 216.868 30.3454C214.837 30.3454 213.542 29.4589 212.883 27.6891V32.8746C212.883 35.3279 212.731 35.4038 210.399 35.4038C208.673 35.4038 208.547 35.252 208.547 32.8746V25.8632C208.544 24.1941 208.392 19.0334 208.392 18.1733ZM217.782 23.6081C217.782 21.381 216.843 20.1164 215.449 20.1164C214.054 20.1164 212.964 21.2043 212.964 23.5569C212.964 25.7328 214.056 27.0981 215.449 27.0981C216.816 27.1031 217.782 25.8632 217.782 23.6081Z" fill="white"/>
</g>
<defs>
<clipPath id="clip0_2:58">
<rect width="222.222" height="40" fill="white"/>
</clipPath>
</defs>
</svg>
